<mxfile host="app.diagrams.net" modified="2024-03-15T06:59:35.714Z" agent="Mozilla/5.0 (Windows NT 10.0; Win64; x64) AppleWebKit/537.36 (KHTML, like Gecko) Chrome/122.0.0.0 Safari/537.36" version="24.0.6" etag="5h1PO_s7eWST2vz9OggP" type="github">
  <diagram name="第 1 页" id="XicS_7nabor3P3CTxZNd">
    <mxGraphModel>
      <root>
        <mxCell id="0" />
        <mxCell id="1" parent="0" />
      </root>
    </mxGraphModel>
  </diagram>
</mxfile>
